name processed_emg_signals
nRows=37
nColumns=7
 
endheader
time	RGLTMED	RRF	RADDLONG	RST	RTA	RGM
0.0751999999999999	0.0181619368727039	0.0464930549246439	-0.1266935576523677	0.0328166147157096	-0.0088614025114975	-0.0074635638810071
0.0851999999999999	0.0190192171649086	0.0478234327688403	-0.110070100890152	0.0336975225764231	-0.006986224879779	-0.0044132324424331
0.0951999999999999	0.0198692827515983	0.0491497293460666	-0.09346589378617	0.0345766267060841	-0.0051028649733914	-0.0013754981270059
0.10519999999999988	0.020711467808593	0.0504709554397415	-0.0768893633185682	0.0354533334878806	-0.0032120749111141	0.0016479770395935
0.11519999999999989	0.0215451137785931	0.0517861254334742	-0.0603488696934675	0.0363270536418701	-0.0013146086411216	0.0046555527654147
0.12519999999999987	0.022369570478384	0.0530942589788241	-0.0438526955715693	0.0371972033417721	0.0005887788516736	0.0076456127772655
0.13519999999999988	0.0231841972002347	0.0543943826631584	-0.0274090355079364	0.0380632053286786	0.0024973323181984	0.0106165670612284
0.14519999999999986	0.0239883638045725	0.0556855316721235	-0.0110259856280077	0.0389244900177197	0.004410296995465	0.0135668540539683
0.15519999999999984	0.0247814518009808	0.0569667514412825	0.0052884664376056	0.039780496593676	0.0063269193324316	0.0164949427802166
0.16519999999999985	0.0255628554145376	0.0582370992914374	0.0215264513375385	0.0406306740914597	0.008246447689597	0.0193993349318889
0.17519999999999986	0.0263319826344902	0.05949564604217	0.0376802274818513	0.0414744824573778	0.0101681330105781	0.0222785668843003
0.18519999999999984	0.0270882562422186	0.0607414775980415	0.0537421902012294	0.0423113935871105	0.0120912294640484	0.0251312116449735
0.19519999999999982	0.0278311148154024	0.0619736965017962	0.0697048805631744	0.0431408923363926	0.0140149950545079	0.0279558807305585
0.20519999999999983	0.0285600137052865	0.0631914234488567	0.0855609938260608	0.0439624775004816	0.0159386922004294	0.0307512259674681
0.2151999999999998	0.0292744259839055	0.0643937987573495	0.1013033875128671	0.0447756627585462	0.0178615882783849	0.0335159412118608
0.22519999999999982	0.0299738433581801	0.0655799837879471	0.1169250890877023	0.0455799775791435	0.0197829561318142	0.0362487639846419
0.2351999999999998	0.0306577770478166	0.0667491623077538	0.1324193032201078	0.0463749680829068	0.0217020745431771	0.038948477017138
0.24519999999999978	0.0313257586239784	0.0679005417924735	0.1477794186244948	0.0471601978585082	0.0236182286683732	0.0416139097031005
0.25519999999999976	0.0319773408056833	0.0690333546609998	0.1629990144646013	0.0479352487279107	0.025530710432559	0.0442439394527626
0.26519999999999977	0.0326120982108581	0.0701468594365504	0.1780718663150444	0.0486997214569507	0.0274388188868348	0.0468374929447671
0.2751999999999998	0.0332296280589647	0.0712403418284149	0.1929919516736631	0.0494532364073859	0.0293418605256712	0.0493935472719025
0.2851999999999998	0.033829550822136	0.0723131157283648	0.2077534550195226	0.050195434126684	0.0312391495652987	0.0519111309766765
0.2951999999999998	0.0344115108218969	0.0733645241157668	0.2223507724121725	0.0509259758719334	0.0331300081834842	0.0543893249728182
0.30519999999999975	0.0349751767688214	0.0743939398655827	0.2367785156281666	0.051644544064359	0.0350137667212962	0.0568272633489344
0.3151999999999997	0.0355202422430267	0.0754007664539834	0.2510315158309322	0.0523508426712155	0.0368897638476035	0.0592241340507652
0.3251999999999997	0.0360464261142016	0.0763844385577765	0.2651048267700088	0.053044597512505	0.0387573466872376	0.0615791794390018
0.3351999999999997	0.0365534729007155	0.0773444225461988	0.2789937275057367	0.0537255564911083	0.0406158709140157	0.0638916967203858
0.34519999999999973	0.0370411530680813	0.0782802168664981	0.2926937246557534	0.0543934897462063	0.0424647008101224	0.0661610382508726
0.35519999999999974	0.0375092632673986	0.0791913523270635	0.3062005541602891	0.0550481897309872	0.044303209293633	0.0683866117107115
0.36519999999999975	0.0379576265145438	0.080077392283271	0.3195101825639971	0.0556894712163692	0.0461307779161683	0.070567880152312
0.37519999999999976	0.0383860923108562	0.0809379327317513	0.3326188078128383	0.0563171712229574	0.0479467968327925	0.0727043619225453
0.38519999999999965	0.0387945367060615	0.0817726023188337	0.3455228595651729	0.0569311488837388	0.0497506647462864	0.0747956304617026
0.39519999999999966	0.0391828623042154	0.0825810622688324	0.3582189990171003	0.057531285240182	0.0515417888279548	0.0768413139818282
0.40519999999999967	0.0395509982135586	0.0833630062377385	0.3707041182434673	0.0581174829744902	0.0533195846171463	0.0788410950275546
0.4151999999999997	0.0398988999413717	0.0841181600977989	0.3829753390580317	0.0586896660807691	0.0550834759017238	0.0807947099230566
0.4251999999999997	0.0402265492351438	0.0848462816584114	0.3950300113988136	0.0592477794778636	0.0568328945818993	0.0827019481092161
0.4351999999999997	0.0405339538716727	0.0855471603286097	0.4068657112476894	0.0597917885666399	0.0585672805200663	0.0845626513755494
